<svg id="Warstwa_1" data-name="Warstwa 1" xmlns="http://www.w3.org/2000/svg" version="1.1"
  viewBox="54.77 61.9 389.97 126.92">
  <defs>
    <style>
      .cls-1,
      .cls-2,
      .cls-3,
      .cls-4 {
        stroke-width: 0px;
      }

      .cls-1,
      .cls-4 {
        fill: #b1b1b1;
      }

      .cls-2 {
        fill: #881002;
      }

      .cls-3 {
        fill: #1d1d1b;
      }

      .cls-4 {
        fill-rule: evenodd;
      }
    </style>
  </defs>
  <rect class="cls-2" x="54.8" y="61.9" width="80.8" height="126.9"></rect>
  <path class="cls-1"
    d="M 103.9 125.9 c 2.6 1.1 5 2.7 7 4.7 c 2 2 3.6 4.3 4.7 7 c 1.1 2.5 1.6 5.3 1.6 8.2 s -0.6 5.7 -1.6 8.2 c -1.1 2.6 -2.7 5 -4.7 7 c -2 2 -4.3 3.6 -7 4.7 c -2.5 1.1 -5.3 1.6 -8.2 1.6 s -5.7 -0.6 -8.2 -1.6 c -2.6 -1.1 -5 -2.7 -7 -4.7 c -2 -2 -3.6 -4.3 -4.7 -7 c -1 -2.5 -1.6 -5.3 -1.6 -8.2 s 0.6 -5.7 1.6 -8.2 c 1.1 -2.6 2.7 -5 4.7 -7 s 4.3 -3.6 7 -4.7 c 2.5 -1.1 5.3 -1.6 8.2 -1.6 s 5.7 0.6 8.2 1.6 M 110.6 130.9 c -1.9 -1.9 -4.3 -3.5 -6.8 -4.6 c -2.5 -1 -5.2 -1.6 -8 -1.6 s -5.6 0.6 -8 1.6 c -2.6 1.1 -4.9 2.6 -6.8 4.6 c -1.9 1.9 -3.5 4.3 -4.6 6.8 c -1 2.5 -1.6 5.2 -1.6 8 s 0.6 5.6 1.6 8 c 1.1 2.6 2.6 4.9 4.6 6.8 c 1.9 1.9 4.3 3.5 6.8 4.6 c 2.5 1 5.2 1.6 8 1.6 s 5.6 -0.6 8 -1.6 c 2.6 -1.1 4.9 -2.6 6.8 -4.6 c 1.9 -1.9 3.5 -4.3 4.6 -6.8 c 1 -2.5 1.6 -5.2 1.6 -8 s -0.6 -5.6 -1.6 -8 c -1.1 -2.6 -2.6 -4.9 -4.6 -6.8 Z M 98.7 122 c -1 -0.1 -2 -0.2 -3 -0.2 s -2 0 -2.9 0.2 c -1 0.1 -1.9 0.3 -2.9 0.5 h -0.2 c 0 0 0 -0.1 0 -0.1 l -0.7 -2.4 l -4.1 1.3 l 0.8 2.5 v 0.2 c 0 0 -0.1 0 -0.1 0 c -0.5 0.3 -1.1 0.5 -1.6 0.8 c -0.5 0.3 -1 0.6 -1.5 1 h -0.2 c 0 0.1 -0.1 0 -0.1 0 l -1.5 -2 l -3.4 2.6 l 1.6 2.1 v 0.2 c 0.1 0 0 0.1 0 0.1 c -0.4 0.4 -0.8 0.9 -1.2 1.3 c -0.4 0.4 -0.8 0.9 -1.1 1.4 v 0.2 c -0.1 0 -0.3 0 -0.3 0 l -2.5 -1.3 l -2 3.8 l 2.3 1.2 h 0.2 c 0 0 0 0.3 0 0.3 c -0.3 0.6 -0.5 1.2 -0.8 1.9 c -0.2 0.6 -0.4 1.3 -0.6 1.9 v 0.2 c 0 0 -0.2 0 -0.2 0 l -2.5 -0.3 l -0.5 4.2 l 2.2 0.3 h 0.2 s 0 0.2 0 0.2 c 0 0.3 0 0.6 0 0.9 c 0 0.3 0 0.6 0 0.9 s 0 0.7 0 1 c 0 0.3 0 0.6 0 1 v 0.2 s -0.2 0 -0.2 0 h -2.5 c 0 0.1 0.2 4.4 0.2 4.4 l 3.1 -0.2 h 0.2 s 0 0.2 0 0.2 c 0.2 0.6 0.4 1.2 0.6 1.7 c 0.2 0.6 0.4 1.1 0.7 1.7 v 0.2 c 0 0 0 0 0 0 l -2.1 1.1 l 2 3.8 l 2.3 -1.2 h 0.2 c 0 0 0.1 0 0.1 0 c 0.4 0.5 0.8 1 1.2 1.5 c 0.4 0.5 0.8 0.9 1.3 1.4 l 0.2 0.2 l -0.2 0.2 l -1.9 1.9 l 3 3 l 2.2 -2.2 h 0.1 c 0 -0.1 0.1 0 0.1 0 c 0.5 0.3 1 0.6 1.5 0.9 c 0.5 0.3 1 0.6 1.6 0.8 h 0.2 c 0 0 0 0.3 0 0.3 l -0.9 2.6 l 4 1.4 l 0.9 -2.6 v -0.2 c 0 0 0.3 0 0.3 0 c 0.9 0.2 1.9 0.4 2.9 0.5 c 1 0.1 1.9 0.2 2.9 0.2 s 2.1 0 3.1 -0.2 c 1 -0.1 2.1 -0.3 3.1 -0.6 h 0.2 c 0 0 0 0.2 0 0.2 l 0.7 2.5 l 4.1 -1.2 l -0.8 -2.9 v -0.2 c 0 0 0.1 0 0.1 0 c 0.5 -0.3 1 -0.5 1.5 -0.8 c 0.5 -0.3 1 -0.6 1.5 -1 h 0.2 c 0 -0.1 0.1 0 0.1 0 l 1.9 2.3 l 3.3 -2.7 l -1.9 -2.4 v -0.2 c -0.1 0 0 -0.1 0 -0.1 c 0.4 -0.4 0.8 -0.8 1.1 -1.3 c 0.4 -0.4 0.7 -0.9 1 -1.3 v -0.2 c 0.1 0 0.3 0 0.3 0 l 2.9 1.5 l 1.9 -3.8 l -2.6 -1.3 h -0.2 c 0 0 0 -0.3 0 -0.3 c 0.3 -0.6 0.5 -1.2 0.8 -1.8 c 0.2 -0.6 0.4 -1.2 0.6 -1.9 v -0.2 c 0 0 0.3 0 0.3 0 l 2.9 0.8 l 1.1 -4.1 l -3.3 -0.9 h -0.2 s 0 -0.2 0 -0.2 c 0 -0.3 0 -0.6 0 -0.8 c 0 -0.3 0 -0.6 0 -0.9 s 0 -0.6 0 -0.9 c 0 -0.3 0 -0.6 0 -0.9 v -0.2 s 0.2 0 0.2 0 l 3.2 -0.3 l -0.4 -4.3 l -3.5 0.4 h -0.2 s 0 -0.2 0 -0.2 c -0.2 -0.6 -0.3 -1.1 -0.5 -1.7 c -0.2 -0.6 -0.4 -1.1 -0.7 -1.6 v -0.2 c 0 0 0.1 0 0.1 0 l 2.6 -1.3 l -1.9 -3.8 l -2.8 1.4 h -0.2 c 0 0 -0.1 0 -0.1 0 c -0.3 -0.5 -0.7 -0.9 -1.1 -1.4 c -0.4 -0.5 -0.8 -0.9 -1.2 -1.3 h -0.1 c 0 -0.1 0.1 -0.3 0.1 -0.3 l 2 -2.2 l -3.2 -2.9 l -2 2.2 h -0.1 c 0 0.1 -0.2 0 -0.2 0 c -0.5 -0.4 -1.1 -0.8 -1.7 -1.1 c -0.6 -0.3 -1.2 -0.7 -1.8 -0.9 h -0.2 c 0 0 0.1 -0.3 0.1 -0.3 l 1.3 -2.5 l -3.8 -2 l -1.6 3 v 0.2 c 0 0 -0.2 0 -0.2 0 c -1 -0.2 -1.9 -0.4 -2.9 -0.6 Z M 95.7 121.4 c 1 0 2 0 3 0.2 c 1 0.1 1.9 0.3 2.8 0.5 l 1.6 -3.1 v -0.2 c 0.1 0 0.3 0.1 0.3 0.1 l 4.2 2.2 h 0.2 c 0 0.1 -0.1 0.3 -0.1 0.3 l -1.3 2.5 c 0.5 0.3 1.1 0.6 1.6 0.9 c 0.5 0.3 1.1 0.6 1.6 1 l 2.1 -2.3 v -0.2 c 0.1 0 0.3 0.1 0.3 0.1 l 3.5 3.2 h 0.2 c 0 0.1 -0.1 0.3 -0.1 0.3 l -2 2.2 c 0.4 0.4 0.7 0.8 1 1.2 c 0.3 0.4 0.7 0.8 1 1.3 l 2.8 -1.4 h 0.2 c 0 0 0 0 0 0 l 2.1 4.2 v 0.2 c 0 0 0 0 0 0 l -2.6 1.3 c 0.2 0.5 0.4 1 0.6 1.5 c 0.2 0.5 0.3 1 0.5 1.5 l 3.6 -0.4 h 0.2 s 0 0.2 0 0.2 l 0.5 4.7 v 0.2 s -0.2 0 -0.2 0 l -3.2 0.3 c 0 0.2 0 0.5 0 0.7 c 0 0.3 0 0.6 0 0.9 s 0 0.6 0 0.9 c 0 0.2 0 0.5 0 0.7 l 3.4 0.9 h 0.2 c 0 0 0 0.3 0 0.3 l -1.2 4.6 v 0.2 c 0 0 -0.3 0 -0.3 0 l -2.9 -0.8 c -0.2 0.6 -0.3 1.1 -0.6 1.7 c -0.2 0.6 -0.4 1.1 -0.7 1.7 l 2.6 1.3 h 0.2 c 0 0 0 0.3 0 0.3 l -2.1 4.2 v 0.2 c 0 0 -0.3 0 -0.3 0 l -2.9 -1.5 c -0.3 0.4 -0.6 0.8 -0.9 1.2 c -0.3 0.4 -0.7 0.8 -1 1.1 l 1.9 2.4 v 0.2 c 0.1 0 0 0.1 0 0.1 l -3.7 3 h -0.2 c 0 0.1 -0.1 0 -0.1 0 l -1.9 -2.3 c -0.4 0.3 -0.9 0.6 -1.3 0.9 c -0.5 0.3 -0.9 0.5 -1.4 0.8 l 0.9 2.9 v 0.2 c 0 0 -0.1 0 -0.1 0 l -4.5 1.3 h -0.2 c 0 0 0 -0.1 0 -0.1 l -0.7 -2.6 c -1 0.2 -1.9 0.4 -2.9 0.6 c -1.1 0.1 -2.1 0.2 -3.2 0.2 s -2 0 -3 -0.2 c -0.9 -0.1 -1.9 -0.3 -2.8 -0.5 l -0.9 2.6 v 0.2 c 0 0 -0.3 0 -0.3 0 l -4.5 -1.6 h -0.2 c 0 0 0 -0.3 0 -0.3 l 0.9 -2.7 c -0.5 -0.2 -1 -0.5 -1.4 -0.8 c -0.5 -0.3 -0.9 -0.6 -1.4 -0.9 l -2.2 2.2 l -0.2 0.2 l -0.2 -0.2 l -3.3 -3.3 l -0.2 -0.2 l 0.2 -0.2 l 1.9 -1.9 c -0.4 -0.4 -0.8 -0.8 -1.1 -1.2 c -0.4 -0.4 -0.7 -0.9 -1.1 -1.3 l -2.3 1.2 h -0.2 c 0 0.1 -0.1 0 -0.1 0 l -2.2 -4.1 v -0.2 c -0.1 0 0 -0.1 0 -0.1 l 2.1 -1.2 c -0.2 -0.5 -0.4 -1 -0.6 -1.5 c -0.2 -0.5 -0.4 -1.1 -0.5 -1.6 l -3.1 0.2 h -0.2 s 0 -0.2 0 -0.2 l -0.3 -4.7 v -0.2 s 0.2 0 0.2 0 h 2.5 c 0 -0.4 0 -0.6 0 -0.9 c 0 -0.3 0 -0.7 0 -1 s 0 -0.6 0 -0.9 c 0 -0.2 0 -0.5 0 -0.7 l -2.2 -0.3 h -0.2 s 0 -0.2 0 -0.2 l 0.6 -4.7 v -0.2 s 0.2 0 0.2 0 l 2.5 0.3 c 0.2 -0.6 0.4 -1.2 0.6 -1.8 c 0.2 -0.6 0.5 -1.1 0.7 -1.7 l -2.3 -1.2 h -0.2 c 0 -0.1 0.1 -0.3 0.1 -0.3 l 2.2 -4.2 v -0.2 c 0.1 0 0.3 0.1 0.3 0.1 l 2.5 1.3 c 0.3 -0.4 0.7 -0.9 1 -1.3 c 0.4 -0.4 0.7 -0.8 1.1 -1.2 l -1.6 -2.1 v -0.2 c -0.1 0 0 -0.1 0 -0.1 l 3.8 -2.9 h 0.2 c 0 -0.1 0.1 0 0.1 0 l 1.5 2 c 0.5 -0.3 0.9 -0.6 1.4 -0.9 c 0.5 -0.3 1 -0.5 1.5 -0.8 l -0.8 -2.6 v -0.2 c 0 0 0.1 0 0.1 0 l 4.5 -1.4 h 0.2 c 0 0 0 0.1 0 0.1 l 0.7 2.4 c 0.9 -0.2 1.8 -0.4 2.7 -0.5 c 1 -0.1 2 -0.2 3 -0.2 Z">
  </path>
  <path class="cls-1"
    d="M 92.5 123.7 h 7.6 v 0.6 s -1.3 53.7 -1.3 53.7 h 0 c 0 0.1 0 0.3 0 0.3 c -0.3 0.5 -0.5 1 -0.7 1.4 c -0.8 1.6 -1.2 2.5 -2 2.5 c -0.8 0 -1.3 -1.1 -2.4 -3.6 c 0 0 0 -0.2 -0.1 -0.3 h 0 c 0 -0.1 0 -0.2 0 -0.2 l -1.5 -53.7 v -0.6 s 0.6 0 0.6 0 Z">
  </path>
  <path class="cls-2"
    d="M 98.9 124.9 h -5.8 l 1.5 53 c 0 0 0 0.1 0 0.2 c 0.9 2 1.3 2.9 1.3 2.9 c 0 0 0.3 -0.6 0.9 -1.8 c 0.2 -0.4 0.4 -0.8 0.7 -1.3 l 1.3 -53 Z">
  </path>
  <path class="cls-1"
    d="M 83.2 131.8 h 26.3 v 24.6 c 0 1 -0.4 2 -1.1 2.7 c -0.7 0.7 -1.6 1.1 -2.7 1.1 h -6.7 s 0 0 -0.1 0 c -0.6 0 -1.7 0 -2.5 1.8 l -0.6 1.5 l -0.4 -1.5 c -0.4 -1.7 -1.9 -1.7 -2.4 -1.7 c 0 0 0 0 0 0 h -6.4 c -1.1 0 -2 -0.4 -2.7 -1.1 c -0.7 -0.7 -1.1 -1.7 -1.1 -2.7 v -24.5 h 0.6 Z">
  </path>
  <polygon class="cls-1"
    points="104.1,124.9 87.7,124.9 87.1,124.9 87.1,124.3 87.1,118.2 87.1,117.6 87.7,117.6 104.1,117.6 104.7,117.6 104.7,118.2 104.7,124.3 104.7,124.9 104.1,124.9">
  </polygon>
  <rect class="cls-2" x="88.3" y="118.8" width="15.2" height="4.9"></rect>
  <path class="cls-4"
    d="M 71.2 134.6 h -7.3 v 0.8 c 1.6 0.1 2.2 0.8 2.2 2.7 v 13.5 c 0 2.1 -0.4 2.8 -2.2 2.9 v 0.8 h 8.4 v -0.8 c -1.9 0 -2.2 -0.8 -2.2 -2.9 v -5.7 h 2.2 c 4 0 6.2 -2.3 6.2 -5.7 s -0.9 -4 -2.7 -4.9 c -1.3 -0.7 -2.8 -0.7 -4.6 -0.7 M 70 144.8 v -7.6 c 0 -1.1 0.3 -1.5 1.3 -1.5 c 2 0 2.8 1.4 2.8 4.6 s -0.9 4.5 -3.4 4.5 h -0.7 Z">
  </path>
  <path class="cls-4"
    d="M 114.6 155.2 h 13.7 l 0.9 -7 h -0.6 c -1.3 4.5 -2.9 5.7 -6.2 5.7 s -1.9 -0.5 -1.9 -2.5 v -7.2 l 4 -3.5 v -1.7 l -4 3.5 v -4.5 c 0 -2.1 0.4 -2.7 2.4 -2.7 v -0.8 h -8.3 v 0.8 c 1.6 0 2.1 0.8 2.1 2.7 v 6.9 l -2.6 2.3 v 1.6 l 2.6 -2.3 v 4.9 c 0 2.1 -0.4 2.8 -2.1 2.8 v 0.8 Z">
  </path>
  <path class="cls-4"
    d="M 115.9 105.2 l 1.3 -2.8 c -4 2.4 -11 1 -18.3 0 c -8.5 -1 -16.8 2.4 -8.9 14.1 h 4.1 c -3.1 -5.7 -2.6 -8.6 -0.1 -10 c 2.5 -1.5 7.2 -1.3 12 -1.2 c 3.4 0.1 6.9 0.2 9.8 -0.2 M 114.9 107.4 l 0.6 -1.4 c -2.9 0.4 -6.3 0.2 -9.5 0.1 c -4.8 -0.2 -9.3 -0.3 -11.6 1.1 c -2.2 1.3 -2.5 4 0.6 9.4 h 2.6 c -1.5 -5.1 0.1 -7.3 3 -8.3 c 2.3 -0.8 5.4 -0.7 8.3 -0.7 c 2.2 0 4.4 0 6 -0.2 Z M 114 109.4 l 0.6 -1.2 c -1.6 0.2 -3.6 0.2 -5.7 0.2 c -2.9 0 -5.9 -0.1 -8.1 0.6 c -2.5 0.9 -3.9 2.9 -2.5 7.7 h 1.5 c -0.3 -5.2 2.5 -6.6 5.9 -6.9 c 1.2 -0.1 2.6 -0.1 3.8 -0.1 c 1.6 0 3.2 0 4.5 -0.2 Z M 102 116.6 c 2.2 -6.5 7.3 -3 10.9 -5 l 0.7 -1.5 c -1.2 0.2 -2.7 0.2 -4.1 0.2 c -1.3 0 -2.6 0 -3.8 0 c -3 0.3 -5.4 1.6 -5.2 6.2 h 1.4 Z">
  </path>
  <path class="cls-2"
    d="M 108.4 132.9 h -24.7 v 23.4 c 0 0.8 0.3 1.5 0.8 2 c 0.5 0.5 1.2 0.8 2 0.8 h 6.4 s 0 0 0 0 c 0.6 0 2.1 0 3 1.4 c 1 -1.4 2.2 -1.4 2.9 -1.4 c 0 0 0 0 0.1 0 h 6.7 c 0.7 0 1.4 -0.3 1.9 -0.8 c 0.5 -0.5 0.8 -1.2 0.8 -1.9 v -23.5 Z">
  </path>
  <path class="cls-4"
    d="M 85.8 142.7 h 1.5 l 0.6 0.9 h 1.7 l 1.7 2.7 h 8.9 l 1.7 -2.7 h 1.9 l 0.7 -1.8 h 1.2 c -0.7 4.7 -2.1 7.7 -4.1 9 h -10.6 c -2.5 -1.1 -4.1 -4 -5.3 -8.1">
  </path>
  <path class="cls-4"
    d="M 91.6 151.6 l 0.3 -0.6 l 2 -4.2 l 4.1 -8.4 l -0.4 -0.2 l 0.3 -0.6 l 1.4 0.7 l -0.3 0.5 h -0.3 c 0 -0.1 -3.9 8 -3.9 8 l -2 4.2 l -0.4 0.8 c 0.3 0.4 0.4 0.8 0.2 1.2 l -1.8 3.7 l -2.1 -1 l 1.7 -3.6 c 0.2 -0.4 0.7 -0.5 1.2 -0.5">
  </path>
  <path class="cls-3"
    d="M 415.3 137.9 c 0.6 0 1.2 0.2 1.6 0.6 c 0.5 0.4 0.8 1 1.1 1.8 c 0.2 0.8 0.4 1.7 0.4 2.8 c 0 1.1 -0.1 2 -0.4 2.8 c -0.3 0.8 -0.6 1.4 -1.1 1.8 c -0.5 0.4 -1 0.6 -1.6 0.6 c -0.6 0 -1.2 -0.2 -1.6 -0.6 c -0.5 -0.4 -0.8 -1 -1.1 -1.8 c -0.3 -0.8 -0.4 -1.7 -0.4 -2.8 c 0 -1.1 0.1 -2 0.4 -2.8 c 0.3 -0.8 0.6 -1.4 1.1 -1.8 c 0.5 -0.4 1 -0.6 1.6 -0.6 M 415.3 136.9 c -0.8 0 -1.6 0.1 -2.3 0.4 c -0.7 0.3 -1.3 0.7 -1.7 1.2 c -0.5 0.5 -0.9 1.2 -1.1 1.9 c -0.3 0.7 -0.4 1.6 -0.4 2.5 c 0 1.3 0.2 2.5 0.7 3.4 c 0.4 1 1.1 1.7 1.9 2.2 c 0.8 0.5 1.8 0.8 3 0.8 c 1.1 0 2.1 -0.3 2.9 -0.8 c 0.8 -0.5 1.5 -1.2 1.9 -2.2 c 0.5 -0.9 0.7 -2 0.7 -3.3 c 0 -1.3 -0.2 -2.4 -0.7 -3.4 c -0.4 -0.9 -1.1 -1.7 -1.9 -2.2 c -0.8 -0.5 -1.8 -0.8 -3 -0.8 Z M 404.9 132.6 c 0 0.1 0 0.3 0 0.4 c 0 0.1 0 0.2 0 0.4 v 15.1 c 0 0.1 0 0.3 0 0.4 c 0 0.1 0 0.2 0 0.4 h 2.5 c 0 -0.1 0 -0.3 0 -0.4 c 0 -0.1 0 -0.2 0 -0.4 v -15.1 c 0 -0.1 0 -0.3 0 -0.4 c 0 -0.1 0 -0.2 0 -0.4 h -2.5 Z M 397 137.9 c 0.6 0 1.2 0.2 1.6 0.6 c 0.5 0.4 0.8 1 1.1 1.8 c 0.2 0.8 0.4 1.7 0.4 2.8 c 0 1.1 -0.1 2 -0.4 2.8 c -0.3 0.8 -0.6 1.4 -1.1 1.8 c -0.5 0.4 -1 0.6 -1.6 0.6 c -0.6 0 -1.2 -0.2 -1.6 -0.6 c -0.5 -0.4 -0.8 -1 -1.1 -1.8 c -0.3 -0.8 -0.4 -1.7 -0.4 -2.8 c 0 -1.1 0.1 -2 0.4 -2.8 c 0.3 -0.8 0.6 -1.4 1.1 -1.8 c 0.5 -0.4 1 -0.6 1.6 -0.6 Z M 397 136.9 c -0.8 0 -1.6 0.1 -2.3 0.4 c -0.7 0.3 -1.3 0.7 -1.7 1.2 c -0.5 0.5 -0.9 1.2 -1.1 1.9 c -0.3 0.7 -0.4 1.6 -0.4 2.5 c 0 1.3 0.2 2.5 0.7 3.4 c 0.4 1 1.1 1.7 1.9 2.2 c 0.8 0.5 1.8 0.8 3 0.8 c 1.1 0 2.1 -0.3 2.9 -0.8 c 0.8 -0.5 1.5 -1.2 1.9 -2.2 c 0.5 -0.9 0.7 -2 0.7 -3.3 c 0 -1.3 -0.2 -2.4 -0.7 -3.4 c -0.4 -0.9 -1.1 -1.7 -1.9 -2.2 c -0.8 -0.5 -1.8 -0.8 -3 -0.8 Z M 379.1 137.1 c 0 0.1 0 0.3 0 0.4 c 0 0.1 0 0.2 0 0.4 v 10.6 c 0 0.1 0 0.2 0 0.3 c 0 0 0 0.2 0 0.2 c 0 0 0 0.2 0 0.2 h 2.5 c 0 -0.1 0 -0.3 0 -0.4 c 0 -0.1 0 -0.2 0 -0.4 v -7 c 0 -0.6 0.1 -1.1 0.3 -1.5 s 0.5 -0.7 1 -1 c 0.4 -0.2 0.9 -0.3 1.5 -0.3 c 0.7 0 1.3 0.2 1.7 0.6 c 0.4 0.4 0.6 0.9 0.6 1.6 v 7.7 c 0 0.1 0 0.2 0 0.3 c 0 0 0 0.2 0 0.2 c 0 0 0 0.1 0 0.2 h 2.5 c 0 -0.1 0 -0.3 0 -0.4 c 0 -0.1 0 -0.2 0 -0.4 v -8.1 c 0 -0.5 0 -0.9 -0.2 -1.3 c -0.1 -0.4 -0.3 -0.7 -0.5 -1 c -0.4 -0.4 -0.8 -0.7 -1.3 -0.9 c -0.5 -0.2 -1.1 -0.3 -1.8 -0.3 s -1.1 0 -1.5 0.2 c -0.4 0.1 -0.8 0.4 -1.2 0.6 c -0.4 0.3 -0.7 0.7 -1 1.1 v -1.7 h -2.4 Z M 368.7 149.2 c 0 -0.1 0 -0.3 0 -0.4 c 0 -0.1 0 -0.2 0 -0.4 v -7.1 c 0 -0.6 0.1 -1.1 0.3 -1.5 c 0.2 -0.4 0.5 -0.7 1 -1 c 0.4 -0.2 0.9 -0.3 1.5 -0.3 c 0.8 0 1.4 0.2 1.8 0.6 c 0.4 0.4 0.6 1.1 0.6 1.9 v 7.3 c 0 0.1 0 0.3 0 0.4 c 0 0.1 0 0.2 0 0.4 h 2.5 c 0 -0.1 0 -0.3 0 -0.4 c 0 -0.1 0 -0.2 0 -0.4 v -8.1 c 0 -0.7 -0.2 -1.4 -0.5 -1.9 c -0.3 -0.5 -0.7 -0.9 -1.3 -1.2 c -0.6 -0.3 -1.3 -0.4 -2.1 -0.4 s -1 0 -1.4 0.2 c -0.4 0.1 -0.8 0.3 -1.2 0.6 c -0.4 0.3 -0.7 0.6 -1 1.1 v -5.4 c 0 -0.1 0 -0.3 0 -0.4 c 0 -0.1 0 -0.2 0 -0.4 h -2.5 c 0 0 0 0.2 0 0.2 c 0 0 0 0.1 0 0.2 c 0 0 0 0.2 0 0.3 v 15.1 c 0 0.1 0 0.3 0 0.4 c 0 0.1 0 0.2 0 0.4 h 2.5 Z M 364.3 146.9 c -0.4 0.3 -0.7 0.6 -1 0.8 c -0.3 0.2 -0.6 0.3 -0.9 0.4 c -0.3 0 -0.6 0.1 -1 0.1 c -0.7 0 -1.3 -0.2 -1.8 -0.6 c -0.5 -0.4 -0.9 -1 -1.2 -1.7 c -0.3 -0.7 -0.4 -1.7 -0.4 -2.7 c 0 -1.1 0.1 -2 0.4 -2.7 c 0.3 -0.8 0.7 -1.4 1.2 -1.8 c 0.5 -0.4 1.2 -0.6 1.9 -0.6 c 0.3 0 0.6 0 0.9 0.1 c 0.3 0 0.6 0.2 0.9 0.4 c 0.3 0.2 0.6 0.4 1 0.7 v -1.8 c -0.4 -0.1 -0.7 -0.2 -1 -0.3 c -0.3 0 -0.6 -0.1 -0.9 -0.2 c -0.3 0 -0.6 0 -1 0 c -1.2 0 -2.3 0.3 -3.2 0.8 c -0.9 0.5 -1.6 1.3 -2 2.2 c -0.5 1 -0.7 2.1 -0.7 3.4 c 0 1.3 0.2 2.4 0.7 3.3 c 0.4 0.9 1.1 1.6 1.9 2.1 c 0.8 0.5 1.8 0.7 2.9 0.7 c 0.3 0 0.6 0 0.8 0 c 0.2 0 0.5 0 0.7 -0.1 c 0.2 0 0.5 -0.1 0.8 -0.3 c 0.3 -0.1 0.7 -0.3 1.1 -0.5 v -1.7 Z M 345.5 141.7 c 0 -0.8 0.3 -1.4 0.5 -2 c 0.3 -0.6 0.6 -1 1 -1.3 c 0.4 -0.3 0.9 -0.4 1.4 -0.4 s 0.7 0 1.1 0.2 c 0.3 0.2 0.6 0.4 0.9 0.7 c 0.2 0.3 0.4 0.7 0.6 1.1 c 0 0.2 0 0.3 0.1 0.5 c 0 0.2 0 0.3 0 0.5 c 0 0.2 0 0.4 0 0.7 h -5.8 Z M 352.8 146.9 c -0.4 0.3 -0.8 0.6 -1.1 0.8 c -0.4 0.2 -0.7 0.4 -1.1 0.5 c -0.4 0 -0.8 0.1 -1.2 0.1 c -0.9 0 -1.6 -0.2 -2.2 -0.6 c -0.6 -0.4 -1 -1 -1.3 -1.8 c 0 -0.2 -0.1 -0.5 -0.2 -0.7 c 0 -0.2 0 -0.4 -0.1 -0.7 c 0 -0.2 0 -0.5 0 -0.8 c 0 -0.3 0 -0.6 0 -1 h 8.3 c 0 -1.3 -0.3 -2.3 -0.7 -3.2 c -0.4 -0.9 -1 -1.5 -1.8 -2 c -0.8 -0.5 -1.7 -0.7 -2.7 -0.7 c -1.2 0 -2.2 0.3 -3 0.8 c -0.8 0.5 -1.5 1.2 -1.9 2.2 c -0.5 0.9 -0.7 2.1 -0.7 3.4 c 0 1.3 0.2 2.4 0.7 3.4 c 0.5 0.9 1.2 1.6 2.1 2.1 c 0.9 0.5 2 0.7 3.3 0.7 c 0.4 0 0.8 0 1.1 0 c 0.3 0 0.7 0 1 -0.2 c 0.3 0 0.6 -0.2 1 -0.3 c 0.3 -0.1 0.7 -0.3 1.1 -0.5 l -0.4 -1.5 Z M 332.4 133.8 v 1.4 c 0.2 0 0.4 0 0.5 0 c 0.1 0 0.3 0 0.5 0 h 3.4 v 13.4 c 0 0.1 0 0.3 0 0.4 c 0 0.1 0 0.2 0 0.4 h 2.8 c 0 -0.1 0 -0.3 0 -0.4 c 0 -0.1 0 -0.2 0 -0.4 v -13.4 h 3.4 c 0.1 0 0.3 0 0.4 0 c 0.1 0 0.3 0 0.5 0 v -1.4 h -11.2 Z M 321.2 138.3 v 10.2 c 0 0.1 0 0.3 0 0.4 c 0 0.1 0 0.2 0 0.4 h 2.5 c 0 -0.1 0 -0.3 0 -0.4 c 0 -0.1 0 -0.2 0 -0.4 v -10.2 h 3.4 v -1.1 h -3.4 v -2 c 0 -0.6 0.1 -1 0.4 -1.2 c 0.3 -0.3 0.6 -0.4 1.2 -0.4 c 0.3 0 0.6 0 0.9 0.1 c 0.3 0 0.7 0.2 1.1 0.4 l 0.5 -1.3 c -0.4 -0.1 -0.8 -0.2 -1.1 -0.3 c -0.3 0 -0.6 -0.1 -0.9 -0.1 c -0.3 0 -0.6 0 -0.9 0 c -1.1 0 -2 0.2 -2.6 0.7 c -0.6 0.5 -0.9 1.2 -0.9 2.1 v 2.1 h -1.3 v 1.1 h 1.3 Z M 313 137.9 c 0.6 0 1.2 0.2 1.6 0.6 c 0.5 0.4 0.8 1 1.1 1.8 c 0.2 0.8 0.4 1.7 0.4 2.8 c 0 1.1 -0.1 2 -0.4 2.8 c -0.3 0.8 -0.6 1.4 -1.1 1.8 c -0.5 0.4 -1 0.6 -1.6 0.6 c -0.6 0 -1.2 -0.2 -1.6 -0.6 c -0.5 -0.4 -0.8 -1 -1.1 -1.8 c -0.3 -0.8 -0.4 -1.7 -0.4 -2.8 c 0 -1.1 0.1 -2 0.4 -2.8 c 0.3 -0.8 0.6 -1.4 1.1 -1.8 c 0.5 -0.4 1 -0.6 1.6 -0.6 Z M 313 136.9 c -0.8 0 -1.6 0.1 -2.3 0.4 c -0.7 0.3 -1.3 0.7 -1.7 1.2 c -0.5 0.5 -0.9 1.2 -1.1 1.9 c -0.3 0.7 -0.4 1.6 -0.4 2.5 c 0 1.3 0.2 2.5 0.7 3.4 c 0.4 1 1.1 1.7 1.9 2.2 c 0.8 0.5 1.8 0.8 3 0.8 c 1.1 0 2.1 -0.3 2.9 -0.8 c 0.8 -0.5 1.5 -1.2 1.9 -2.2 c 0.5 -0.9 0.7 -2 0.7 -3.3 c 0 -1.3 -0.2 -2.4 -0.7 -3.4 c -0.4 -0.9 -1.1 -1.7 -1.9 -2.2 c -0.8 -0.5 -1.8 -0.8 -3 -0.8 Z M 294.3 149.2 l -1.3 2.9 c 0 0 0 0.2 -0.1 0.3 c 0 0.1 -0.1 0.2 -0.2 0.4 h 1.5 c 0 -0.1 0 -0.2 0 -0.3 c 0 -0.1 0 -0.2 0.1 -0.3 l 5.9 -14.3 c 0 -0.1 0 -0.2 0.1 -0.3 c 0 -0.1 0.1 -0.2 0.2 -0.3 h -1.4 c 0 0.1 0 0.2 0 0.3 c 0 0 0 0.2 -0.1 0.3 l -3.3 8.1 l -2.8 -8.1 c 0 0 0 -0.2 0 -0.3 c 0 -0.1 0 -0.2 0 -0.4 h -2.8 c 0 0.2 0.1 0.3 0.2 0.4 c 0 0.1 0 0.2 0.1 0.3 l 4.1 11.4 Z M 285.2 138.3 v 8.8 c 0 0.8 0.2 1.4 0.6 1.8 c 0.4 0.4 1 0.6 1.8 0.6 c 0.4 0 0.7 0 1 -0.1 c 0.3 0 0.7 -0.2 1 -0.4 v -1.2 c -0.2 0.1 -0.4 0.2 -0.5 0.2 c -0.1 0 -0.2 0 -0.3 0.1 c 0 0 -0.2 0 -0.3 0 c -0.3 0 -0.5 0 -0.7 -0.3 c -0.2 -0.2 -0.2 -0.4 -0.2 -0.8 v -8.7 h 1.9 v -1.1 h -1.9 v -1.9 c 0 0 0 -0.1 0 -0.2 c 0 -0.1 0 -0.3 0 -0.5 l -2.4 0.3 v 2.3 h -1.8 v 1.1 h 1.8 Z M 279.1 137.1 c 0 0.1 0 0.3 0 0.4 c 0 0.1 0 0.2 0 0.4 v 10.6 c 0 0.1 0 0.3 0 0.4 c 0 0.1 0 0.2 0 0.4 h 2.5 c 0 -0.1 0 -0.3 0 -0.4 c 0 -0.1 0 -0.2 0 -0.4 v -10.6 c 0 -0.1 0 -0.3 0 -0.4 c 0 -0.1 0 -0.2 0 -0.4 h -2.5 Z M 280.5 133.9 c -0.3 0 -0.6 0 -0.8 0.1 c -0.2 0 -0.4 0.2 -0.5 0.4 c -0.1 0.2 -0.2 0.4 -0.2 0.6 c 0 0.4 0.1 0.6 0.4 0.8 c 0.3 0.2 0.6 0.3 1.1 0.3 c 0.5 0 0.8 -0.1 1.1 -0.3 c 0.3 -0.2 0.4 -0.5 0.4 -0.8 c 0 -0.3 -0.1 -0.6 -0.4 -0.8 c -0.3 -0.2 -0.6 -0.3 -1.1 -0.3 Z M 268.6 148.4 c 0.5 0.2 0.9 0.4 1.3 0.6 c 0.4 0.2 0.8 0.3 1.2 0.3 c 0.4 0 0.9 0 1.3 0 c 0.9 0 1.8 -0.2 2.4 -0.5 c 0.7 -0.3 1.2 -0.8 1.6 -1.3 c 0.4 -0.6 0.6 -1.3 0.6 -2 c 0 -0.6 0 -1.1 -0.3 -1.5 c -0.2 -0.4 -0.6 -0.8 -1.1 -1.1 c -0.5 -0.3 -1.2 -0.7 -2 -1 c -0.5 -0.2 -1 -0.4 -1.3 -0.5 c -0.3 -0.2 -0.6 -0.3 -0.8 -0.5 c -0.2 -0.2 -0.3 -0.3 -0.4 -0.5 c 0 -0.2 -0.1 -0.4 -0.1 -0.6 c 0 -0.4 0.1 -0.7 0.3 -1 c 0.2 -0.3 0.5 -0.5 0.8 -0.6 c 0.3 -0.2 0.7 -0.2 1.2 -0.2 c 0.3 0 0.6 0 0.9 0.1 c 0.3 0 0.6 0.2 1 0.4 s 0.7 0.4 1.1 0.7 l 0.4 -1.5 c -0.6 -0.3 -1.3 -0.5 -1.8 -0.6 c -0.6 -0.1 -1.2 -0.2 -1.8 -0.2 c -0.8 0 -1.6 0.2 -2.2 0.5 c -0.6 0.3 -1.1 0.7 -1.5 1.2 c -0.4 0.5 -0.5 1.2 -0.5 1.9 c 0 0.5 0 1 0.3 1.4 c 0.2 0.4 0.5 0.8 1 1.1 c 0.4 0.3 1 0.6 1.7 0.9 c 0.6 0.2 1.1 0.5 1.5 0.6 c 0.4 0.2 0.7 0.4 0.9 0.5 c 0.2 0.2 0.4 0.4 0.4 0.5 c 0 0.2 0.1 0.4 0.1 0.7 c 0 0.4 -0.1 0.7 -0.3 1 c -0.2 0.3 -0.5 0.5 -0.8 0.7 c -0.4 0.2 -0.8 0.3 -1.2 0.3 c -0.4 0 -0.8 0 -1.1 -0.1 c -0.4 0 -0.7 -0.3 -1.1 -0.5 c -0.4 -0.2 -0.8 -0.5 -1.2 -0.9 l -0.4 1.6 Z M 262.1 137.1 c 0 0.1 0 0.3 0 0.4 c 0 0.1 0 0.2 0 0.4 v 10.6 c 0 0.1 0 0.3 0 0.4 c 0 0.1 0 0.2 0 0.4 h 2.5 c 0 -0.1 0 -0.3 0 -0.4 c 0 -0.1 0 -0.2 0 -0.4 v -6.9 c 0 -0.3 0 -0.6 0 -0.9 c 0 -0.3 0.1 -0.5 0.2 -0.7 c 0 -0.2 0.2 -0.4 0.4 -0.5 c 0.2 -0.3 0.5 -0.4 0.8 -0.6 c 0.3 -0.1 0.7 -0.2 1.1 -0.2 h 0.4 s 0 -1.8 0 -1.8 c -0.6 0 -1.1 0 -1.5 0.2 c -0.4 0.1 -0.7 0.3 -1 0.6 c -0.3 0.3 -0.4 0.6 -0.6 1 v -1.5 h -2.4 Z M 251.6 141.7 c 0 -0.8 0.3 -1.4 0.5 -2 c 0.3 -0.6 0.6 -1 1 -1.3 c 0.4 -0.3 0.9 -0.4 1.4 -0.4 s 0.7 0 1.1 0.2 c 0.3 0.2 0.6 0.4 0.9 0.7 c 0.2 0.3 0.4 0.7 0.6 1.1 c 0 0.2 0 0.3 0.1 0.5 c 0 0.2 0 0.3 0 0.5 c 0 0.2 0 0.4 0 0.7 h -5.8 Z M 258.9 146.9 c -0.4 0.3 -0.8 0.6 -1.1 0.8 c -0.4 0.2 -0.7 0.4 -1.1 0.5 c -0.4 0 -0.8 0.1 -1.2 0.1 c -0.9 0 -1.6 -0.2 -2.2 -0.6 c -0.6 -0.4 -1 -1 -1.3 -1.8 c 0 -0.2 -0.1 -0.5 -0.2 -0.7 c 0 -0.2 0 -0.4 -0.1 -0.7 c 0 -0.2 0 -0.5 0 -0.8 c 0 -0.3 0 -0.6 0 -1 h 8.3 c 0 -1.3 -0.3 -2.3 -0.7 -3.2 c -0.4 -0.9 -1 -1.5 -1.8 -2 c -0.8 -0.5 -1.7 -0.7 -2.7 -0.7 c -1.2 0 -2.2 0.3 -3 0.8 c -0.8 0.5 -1.5 1.2 -1.9 2.2 c -0.5 0.9 -0.7 2.1 -0.7 3.4 c 0 1.3 0.2 2.4 0.7 3.4 c 0.5 0.9 1.2 1.6 2.1 2.1 c 0.9 0.5 2 0.7 3.3 0.7 c 0.4 0 0.8 0 1.1 0 c 0.3 0 0.7 0 1 -0.2 c 0.3 0 0.6 -0.2 1 -0.3 c 0.3 -0.1 0.7 -0.3 1.1 -0.5 l -0.4 -1.5 Z M 243.9 146.5 l -3.1 -8.7 c 0 -0.1 0 -0.3 0 -0.4 c 0 -0.1 0 -0.2 0 -0.3 h -2.8 c 0 0.2 0.1 0.3 0.2 0.4 c 0 0.1 0 0.2 0.1 0.3 l 3.9 10.7 c 0 0.1 0 0.3 0.1 0.4 c 0 0 0 0.2 0 0.3 h 1.9 c 0 -0.1 0 -0.2 0 -0.3 c 0 -0.1 0 -0.2 0.1 -0.4 l 4 -10.7 c 0 -0.1 0 -0.3 0.1 -0.4 c 0 -0.1 0.1 -0.2 0.2 -0.3 h -1.4 c 0 0 0 0.2 0 0.3 c 0 0.1 0 0.2 -0.1 0.4 l -3.3 8.7 Z M 234 137.1 c 0 0.1 0 0.3 0 0.4 c 0 0.1 0 0.2 0 0.4 v 10.6 c 0 0.1 0 0.3 0 0.4 c 0 0.1 0 0.2 0 0.4 h 2.5 c 0 -0.1 0 -0.3 0 -0.4 c 0 -0.1 0 -0.2 0 -0.4 v -10.6 c 0 -0.1 0 -0.3 0 -0.4 c 0 -0.1 0 -0.2 0 -0.4 h -2.5 Z M 235.3 133.9 c -0.3 0 -0.6 0 -0.8 0.1 c -0.2 0 -0.4 0.2 -0.5 0.4 c -0.1 0.2 -0.2 0.4 -0.2 0.6 c 0 0.4 0.1 0.6 0.4 0.8 c 0.3 0.2 0.6 0.3 1.1 0.3 c 0.5 0 0.8 -0.1 1.1 -0.3 c 0.3 -0.2 0.4 -0.5 0.4 -0.8 c 0 -0.3 -0.1 -0.6 -0.4 -0.8 c -0.3 -0.2 -0.6 -0.3 -1.1 -0.3 Z M 221.1 137.1 c 0 0.1 0 0.3 0 0.4 c 0 0.1 0 0.2 0 0.4 v 10.6 c 0 0.1 0 0.2 0 0.3 c 0 0 0 0.2 0 0.2 c 0 0 0 0.2 0 0.2 h 2.5 c 0 -0.1 0 -0.3 0 -0.4 c 0 -0.1 0 -0.2 0 -0.4 v -7 c 0 -0.6 0.1 -1.1 0.3 -1.5 s 0.5 -0.7 1 -1 c 0.4 -0.2 0.9 -0.3 1.5 -0.3 c 0.7 0 1.3 0.2 1.7 0.6 c 0.4 0.4 0.6 0.9 0.6 1.6 v 7.7 c 0 0.1 0 0.2 0 0.3 c 0 0 0 0.2 0 0.2 c 0 0 0 0.1 0 0.2 h 2.5 c 0 -0.1 0 -0.3 0 -0.4 c 0 -0.1 0 -0.2 0 -0.4 v -8.1 c 0 -0.5 0 -0.9 -0.2 -1.3 c -0.1 -0.4 -0.3 -0.7 -0.5 -1 c -0.4 -0.4 -0.8 -0.7 -1.3 -0.9 c -0.5 -0.2 -1.1 -0.3 -1.8 -0.3 s -1.1 0 -1.5 0.2 c -0.4 0.1 -0.8 0.4 -1.2 0.6 c -0.4 0.3 -0.7 0.7 -1 1.1 v -1.7 h -2.4 Z M 216.8 133.8 c 0 0.1 0 0.2 0 0.3 c 0 0.1 0 0.2 0 0.4 v 9.4 c 0 0.9 -0.2 1.7 -0.5 2.3 c -0.3 0.6 -0.8 1.1 -1.5 1.4 c -0.6 0.3 -1.4 0.5 -2.4 0.5 c -0.9 0 -1.6 -0.2 -2.2 -0.5 c -0.6 -0.3 -1.1 -0.8 -1.4 -1.3 c -0.3 -0.6 -0.5 -1.3 -0.5 -2.1 v -9.7 c 0 -0.1 0 -0.3 0 -0.4 c 0 -0.1 0 -0.2 0 -0.4 h -2.8 c 0 0.1 0 0.3 0 0.4 c 0 0.1 0 0.2 0 0.4 v 9.7 c 0 0.6 0 1.2 0.3 1.8 c 0.2 0.6 0.5 1.1 0.8 1.5 c 0.5 0.7 1.2 1.2 2 1.5 c 0.8 0.3 1.8 0.5 2.9 0.5 c 1.3 0 2.5 -0.2 3.4 -0.6 c 0.9 -0.4 1.6 -1 2.1 -1.8 c 0.5 -0.8 0.7 -1.8 0.7 -2.9 v -9.6 c 0 -0.1 0 -0.2 0 -0.3 c 0 0 0 -0.2 0 -0.2 c 0 0 0 -0.2 0 -0.2 h -1.3 Z M 187.5 149.2 h 10 v -1.3 c -0.1 0 -0.2 0 -0.3 0 c 0 0 -0.2 0 -0.3 0 c 0 0 -0.2 0 -0.3 0 h -6.3 l 7.2 -9.6 v -1.2 h -9.9 v 1.3 c 0.1 0 0.2 0 0.3 0 c 0 0 0.2 0 0.3 0 c 0 0 0.2 0 0.3 0 h 6.2 l -7.2 9.6 v 1.2 Z M 180.7 138.1 c 0.9 0 1.5 0.4 2 1.2 c 0.5 0.8 0.7 2 0.7 3.6 c 0 0.6 0 1.1 0 1.5 c 0 0.4 -0.1 0.8 -0.2 1.2 c -0.1 0.4 -0.2 0.7 -0.4 1 c -0.2 0.4 -0.5 0.7 -0.9 0.9 c -0.4 0.2 -0.8 0.3 -1.2 0.3 c -0.9 0 -1.6 -0.4 -2 -1.2 c -0.5 -0.8 -0.7 -2 -0.7 -3.6 s 0.1 -2 0.3 -2.7 c 0.2 -0.7 0.5 -1.3 1 -1.7 c 0.4 -0.4 0.9 -0.6 1.5 -0.6 Z M 183.2 149.2 h 2.4 c 0 -0.1 0 -0.3 0 -0.4 c 0 -0.1 0 -0.2 0 -0.4 v -15.1 c 0 -0.1 0 -0.3 0 -0.4 c 0 -0.1 0 -0.2 0 -0.4 h -2.5 c 0 0.1 0 0.3 0 0.4 c 0 0.1 0 0.2 0 0.4 v 5.1 c -0.3 -0.4 -0.6 -0.7 -0.9 -0.9 c -0.3 -0.2 -0.6 -0.4 -1 -0.5 c -0.4 -0.1 -0.8 -0.2 -1.3 -0.2 c -1 0 -1.8 0.3 -2.5 0.8 c -0.7 0.5 -1.2 1.2 -1.6 2.2 c -0.4 0.9 -0.6 2.1 -0.6 3.4 c 0 1.3 0.2 2.4 0.5 3.3 c 0.4 0.9 0.9 1.6 1.5 2.1 c 0.7 0.5 1.4 0.8 2.3 0.8 c 0.5 0 1 0 1.4 -0.2 c 0.4 -0.1 0.8 -0.3 1.1 -0.6 c 0.3 -0.3 0.7 -0.7 1 -1.2 v 1.8 Z M 168 137.9 c 0.6 0 1.2 0.2 1.6 0.6 c 0.5 0.4 0.8 1 1.1 1.8 c 0.2 0.8 0.4 1.7 0.4 2.8 c 0 1.1 -0.1 2 -0.4 2.8 c -0.3 0.8 -0.6 1.4 -1.1 1.8 c -0.5 0.4 -1 0.6 -1.6 0.6 c -0.6 0 -1.2 -0.2 -1.6 -0.6 c -0.5 -0.4 -0.8 -1 -1.1 -1.8 c -0.3 -0.8 -0.4 -1.7 -0.4 -2.8 c 0 -1.1 0.1 -2 0.4 -2.8 c 0.3 -0.8 0.6 -1.4 1.1 -1.8 c 0.5 -0.4 1 -0.6 1.6 -0.6 Z M 168 136.9 c -0.8 0 -1.6 0.1 -2.3 0.4 c -0.7 0.3 -1.3 0.7 -1.7 1.2 c -0.5 0.5 -0.9 1.2 -1.1 1.9 c -0.3 0.7 -0.4 1.6 -0.4 2.5 c 0 1.3 0.2 2.5 0.7 3.4 c 0.4 1 1.1 1.7 1.9 2.2 c 0.8 0.5 1.8 0.8 3 0.8 c 1.1 0 2.1 -0.3 2.9 -0.8 c 0.8 -0.5 1.5 -1.2 1.9 -2.2 c 0.5 -0.9 0.7 -2 0.7 -3.3 c 0 -1.3 -0.2 -2.4 -0.7 -3.4 c -0.4 -0.9 -1.1 -1.7 -1.9 -2.2 c -0.8 -0.5 -1.8 -0.8 -3 -0.8 Z M 161.3 149.2 v -1.4 c 0 0 -0.2 0 -0.2 0 c 0 0 -0.1 0 -0.2 0 c 0 0 -0.2 0 -0.3 0 h -4.4 v -13.4 c 0 -0.1 0 -0.3 0 -0.4 c 0 -0.1 0 -0.2 0 -0.4 h -2.8 c 0 0.2 0 0.3 0 0.4 c 0 0.1 0 0.2 0 0.3 v 14 c 0 0.1 0 0.2 0 0.3 c 0 0.1 0 0.2 0 0.4 h 7.8 Z">
  </path>
  <path class="cls-3"
    d="M 438.5 149.2 l -1.3 2.9 c 0 0 0 0.2 -0.1 0.3 c 0 0.1 -0.1 0.2 -0.2 0.4 h 1.5 c 0 -0.1 0 -0.2 0 -0.3 c 0 -0.1 0 -0.2 0.1 -0.3 l 5.9 -14.3 c 0 -0.1 0 -0.2 0.1 -0.3 c 0 -0.1 0.1 -0.2 0.2 -0.3 h -1.4 c 0 0.1 0 0.2 0 0.3 c 0 0 0 0.2 -0.1 0.3 l -3.3 8.1 l -2.8 -8.1 c 0 0 0 -0.2 0 -0.3 c 0 -0.1 0 -0.2 0 -0.4 h -2.8 c 0 0.2 0.1 0.3 0.2 0.4 c 0 0.1 0 0.2 0.1 0.3 l 4.1 11.4 Z M 428.1 138.1 c 0.6 0 1.1 0.2 1.5 0.5 c 0.4 0.3 0.8 0.8 1 1.3 c 0.2 0.6 0.3 1.3 0.3 2.1 s -0.1 1.6 -0.3 2.2 c -0.2 0.6 -0.6 1.1 -1 1.4 c -0.4 0.3 -0.9 0.5 -1.6 0.5 c -0.6 0 -1.1 -0.2 -1.6 -0.5 c -0.4 -0.3 -0.8 -0.8 -1 -1.4 c -0.2 -0.6 -0.3 -1.3 -0.3 -2.2 s 0.1 -1.5 0.3 -2.1 c 0.2 -0.6 0.6 -1 1 -1.3 c 0.4 -0.3 1 -0.5 1.6 -0.5 Z M 423.3 150.3 c 0.8 -0.2 1.5 -0.4 2.2 -0.5 c 0.7 -0.1 1.4 -0.2 2 -0.2 s 1.3 0 1.8 0.2 c 0.5 0.1 0.9 0.3 1.2 0.5 c 0.3 0.2 0.4 0.5 0.4 0.7 c 0 0.3 -0.1 0.6 -0.4 0.8 c -0.3 0.2 -0.6 0.4 -1.1 0.5 c -0.5 0.1 -1 0.2 -1.7 0.2 s -0.7 0 -1.1 0 c -0.3 0 -0.7 0 -1.1 -0.1 c -0.4 0 -0.7 -0.1 -1.2 -0.2 c -0.4 0 -0.9 -0.2 -1.4 -0.3 v 0.4 c 0.6 0.2 1.2 0.4 1.7 0.5 c 0.5 0.1 1 0.2 1.5 0.3 c 0.5 0 0.9 0.1 1.3 0.2 c 0.4 0 0.9 0 1.3 0 c 1 0 1.9 -0.1 2.7 -0.3 c 0.7 -0.2 1.3 -0.5 1.7 -0.9 c 0.4 -0.4 0.6 -0.8 0.6 -1.3 c 0 -0.5 -0.2 -1 -0.6 -1.3 c -0.4 -0.4 -0.9 -0.7 -1.6 -0.9 c -0.7 -0.2 -1.5 -0.3 -2.5 -0.3 c -0.3 0 -0.6 0 -0.9 0 c -0.3 0 -0.7 0 -1 0.1 c -0.4 0 -0.8 0.1 -1.2 0.2 c -0.5 0 -1 0.2 -1.6 0.4 l 2.2 -1.4 c 0.1 0 0.3 -0.2 0.4 -0.2 c 0.1 0 0.2 0 0.4 -0.1 c 0.1 0 0.3 0 0.5 0 c 0.4 0 0.8 0 1.1 -0.1 c 0.3 0 0.5 0 0.7 -0.1 c 0.2 0 0.4 0 0.6 -0.2 c 0.2 0 0.4 -0.1 0.5 -0.2 c 0.6 -0.3 1 -0.6 1.4 -1 c 0.4 -0.4 0.7 -1 0.9 -1.6 c 0.2 -0.6 0.3 -1.3 0.3 -2 c 0 -1.1 -0.2 -2.1 -0.7 -2.9 c -0.5 -0.8 -1.2 -1.4 -2.1 -1.9 c 0.4 -0.3 0.8 -0.5 1 -0.7 c 0.3 -0.2 0.4 -0.5 0.6 -0.7 c 0.1 -0.3 0.2 -0.6 0.2 -0.9 h -2.2 c 0 0.3 0 0.6 -0.2 0.9 c -0.1 0.3 -0.2 0.5 -0.4 0.7 c -0.2 0.2 -0.4 0.3 -0.6 0.4 c -0.2 0 -0.4 0 -0.6 0 c -0.1 0 -0.3 0 -0.4 0 h -0.3 c -1.1 0 -2 0.2 -2.8 0.6 c -0.8 0.4 -1.4 1 -1.8 1.8 c -0.4 0.8 -0.6 1.8 -0.6 2.9 c 0 0.7 0 1.4 0.3 1.9 c 0.2 0.5 0.4 1 0.8 1.4 c 0.4 0.4 0.9 0.8 1.5 1.1 l -2.6 1.9 l 0.6 1.7 Z">
  </path>
</svg>