<svg id="Warstwa_1" data-name="Warstwa 1" xmlns="http://www.w3.org/2000/svg" version="1.1"
  viewBox="52.6 56.5 392.1 134.5">
  <defs>
    <style>
      .cls-1 {
        fill-rule: evenodd;
      }

      .cls-1,
      .cls-2 {
        fill: #ffffff;
        stroke-width: 0px;
      }
    </style>
  </defs>
  <path class="cls-2"
    d="M415.3,137.9c.6,0,1.2.2,1.6.6.5.4.8,1,1.1,1.8.2.8.4,1.7.4,2.8,0,1.1-.1,2-.4,2.8-.3.8-.6,1.4-1.1,1.8-.5.4-1,.6-1.6.6-.6,0-1.2-.2-1.6-.6-.5-.4-.8-1-1.1-1.8-.3-.8-.4-1.7-.4-2.8,0-1.1.1-2,.4-2.8.3-.8.6-1.4,1.1-1.8.5-.4,1-.6,1.6-.6M415.3,136.9c-.8,0-1.6.1-2.3.4-.7.3-1.3.7-1.7,1.2-.5.5-.9,1.2-1.1,1.9-.3.7-.4,1.6-.4,2.5,0,1.3.2,2.5.7,3.4.4,1,1.1,1.7,1.9,2.2.8.5,1.8.8,3,.8,1.1,0,2.1-.3,2.9-.8.8-.5,1.5-1.2,1.9-2.2.5-.9.7-2,.7-3.3,0-1.3-.2-2.4-.7-3.4-.4-.9-1.1-1.7-1.9-2.2-.8-.5-1.8-.8-3-.8ZM404.9,132.6c0,.1,0,.3,0,.4,0,.1,0,.2,0,.4v15.1c0,.1,0,.3,0,.4,0,.1,0,.2,0,.4h2.5c0-.1,0-.3,0-.4,0-.1,0-.2,0-.4v-15.1c0-.1,0-.3,0-.4,0-.1,0-.2,0-.4h-2.5ZM397,137.9c.6,0,1.2.2,1.6.6.5.4.8,1,1.1,1.8.2.8.4,1.7.4,2.8,0,1.1-.1,2-.4,2.8-.3.8-.6,1.4-1.1,1.8-.5.4-1,.6-1.6.6-.6,0-1.2-.2-1.6-.6-.5-.4-.8-1-1.1-1.8-.3-.8-.4-1.7-.4-2.8,0-1.1.1-2,.4-2.8.3-.8.6-1.4,1.1-1.8.5-.4,1-.6,1.6-.6ZM397,136.9c-.8,0-1.6.1-2.3.4-.7.3-1.3.7-1.7,1.2-.5.5-.9,1.2-1.1,1.9-.3.7-.4,1.6-.4,2.5,0,1.3.2,2.5.7,3.4.4,1,1.1,1.7,1.9,2.2.8.5,1.8.8,3,.8,1.1,0,2.1-.3,2.9-.8.8-.5,1.5-1.2,1.9-2.2.5-.9.7-2,.7-3.3,0-1.3-.2-2.4-.7-3.4-.4-.9-1.1-1.7-1.9-2.2-.8-.5-1.8-.8-3-.8ZM379.1,137.1c0,.1,0,.3,0,.4,0,.1,0,.2,0,.4v10.6c0,.1,0,.2,0,.3,0,0,0,.2,0,.2,0,0,0,.2,0,.2h2.5c0-.1,0-.3,0-.4,0-.1,0-.2,0-.4v-7c0-.6.1-1.1.3-1.5s.5-.7,1-1c.4-.2.9-.3,1.5-.3.7,0,1.3.2,1.7.6.4.4.6.9.6,1.6v7.7c0,.1,0,.2,0,.3,0,0,0,.2,0,.2,0,0,0,.1,0,.2h2.5c0-.1,0-.3,0-.4,0-.1,0-.2,0-.4v-8.1c0-.5,0-.9-.2-1.3-.1-.4-.3-.7-.5-1-.4-.4-.8-.7-1.3-.9-.5-.2-1.1-.3-1.8-.3s-1.1,0-1.5.2c-.4.1-.8.4-1.2.6-.4.3-.7.7-1,1.1v-1.7h-2.4ZM368.7,149.2c0-.1,0-.3,0-.4,0-.1,0-.2,0-.4v-7.1c0-.6.1-1.1.3-1.5.2-.4.5-.7,1-1,.4-.2.9-.3,1.5-.3.8,0,1.4.2,1.8.6.4.4.6,1.1.6,1.9v7.3c0,.1,0,.3,0,.4,0,.1,0,.2,0,.4h2.5c0-.1,0-.3,0-.4,0-.1,0-.2,0-.4v-8.1c0-.7-.2-1.4-.5-1.9-.3-.5-.7-.9-1.3-1.2-.6-.3-1.3-.4-2.1-.4s-1,0-1.4.2c-.4.1-.8.3-1.2.6-.4.3-.7.6-1,1.1v-5.4c0-.1,0-.3,0-.4,0-.1,0-.2,0-.4h-2.5c0,0,0,.2,0,.2,0,0,0,.1,0,.2,0,0,0,.2,0,.3v15.1c0,.1,0,.3,0,.4,0,.1,0,.2,0,.4h2.5ZM364.3,146.9c-.4.3-.7.6-1,.8-.3.2-.6.3-.9.4-.3,0-.6.1-1,.1-.7,0-1.3-.2-1.8-.6-.5-.4-.9-1-1.2-1.7-.3-.7-.4-1.7-.4-2.7,0-1.1.1-2,.4-2.7.3-.8.7-1.4,1.2-1.8.5-.4,1.2-.6,1.9-.6.3,0,.6,0,.9.1.3,0,.6.2.9.4.3.2.6.4,1,.7v-1.8c-.4-.1-.7-.2-1-.3-.3,0-.6-.1-.9-.2-.3,0-.6,0-1,0-1.2,0-2.3.3-3.2.8-.9.5-1.6,1.3-2,2.2-.5,1-.7,2.1-.7,3.4,0,1.3.2,2.4.7,3.3.4.9,1.1,1.6,1.9,2.1.8.5,1.8.7,2.9.7.3,0,.6,0,.8,0,.2,0,.5,0,.7-.1.2,0,.5-.1.8-.3.3-.1.7-.3,1.1-.5v-1.7ZM345.5,141.7c0-.8.3-1.4.5-2,.3-.6.6-1,1-1.3.4-.3.9-.4,1.4-.4s.7,0,1.1.2c.3.2.6.4.9.7.2.3.4.7.6,1.1,0,.2,0,.3.1.5,0,.2,0,.3,0,.5,0,.2,0,.4,0,.7h-5.8ZM352.8,146.9c-.4.3-.8.6-1.1.8-.4.2-.7.4-1.1.5-.4,0-.8.1-1.2.1-.9,0-1.6-.2-2.2-.6-.6-.4-1-1-1.3-1.8,0-.2-.1-.5-.2-.7,0-.2,0-.4-.1-.7,0-.2,0-.5,0-.8,0-.3,0-.6,0-1h8.3c0-1.3-.3-2.3-.7-3.2-.4-.9-1-1.5-1.8-2-.8-.5-1.7-.7-2.7-.7-1.2,0-2.2.3-3,.8-.8.5-1.5,1.2-1.9,2.2-.5.9-.7,2.1-.7,3.4,0,1.3.2,2.4.7,3.4.5.9,1.2,1.6,2.1,2.1.9.5,2,.7,3.3.7.4,0,.8,0,1.1,0,.3,0,.7,0,1-.2.3,0,.6-.2,1-.3.3-.1.7-.3,1.1-.5l-.4-1.5ZM332.4,133.8v1.4c.2,0,.4,0,.5,0,.1,0,.3,0,.5,0h3.4v13.4c0,.1,0,.3,0,.4,0,.1,0,.2,0,.4h2.8c0-.1,0-.3,0-.4,0-.1,0-.2,0-.4v-13.4h3.4c.1,0,.3,0,.4,0,.1,0,.3,0,.5,0v-1.4h-11.2ZM321.2,138.3v10.2c0,.1,0,.3,0,.4,0,.1,0,.2,0,.4h2.5c0-.1,0-.3,0-.4,0-.1,0-.2,0-.4v-10.2h3.4v-1.1h-3.4v-2c0-.6.1-1,.4-1.2.3-.3.6-.4,1.2-.4.3,0,.6,0,.9.1.3,0,.7.2,1.1.4l.5-1.3c-.4-.1-.8-.2-1.1-.3-.3,0-.6-.1-.9-.1-.3,0-.6,0-.9,0-1.1,0-2,.2-2.6.7-.6.5-.9,1.2-.9,2.1v2.1h-1.3v1.1h1.3ZM313,137.9c.6,0,1.2.2,1.6.6.5.4.8,1,1.1,1.8.2.8.4,1.7.4,2.8,0,1.1-.1,2-.4,2.8-.3.8-.6,1.4-1.1,1.8-.5.4-1,.6-1.6.6-.6,0-1.2-.2-1.6-.6-.5-.4-.8-1-1.1-1.8-.3-.8-.4-1.7-.4-2.8,0-1.1.1-2,.4-2.8.3-.8.6-1.4,1.1-1.8.5-.4,1-.6,1.6-.6ZM313,136.9c-.8,0-1.6.1-2.3.4-.7.3-1.3.7-1.7,1.2-.5.5-.9,1.2-1.1,1.9-.3.7-.4,1.6-.4,2.5,0,1.3.2,2.5.7,3.4.4,1,1.1,1.7,1.9,2.2.8.5,1.8.8,3,.8,1.1,0,2.1-.3,2.9-.8.8-.5,1.5-1.2,1.9-2.2.5-.9.7-2,.7-3.3,0-1.3-.2-2.4-.7-3.4-.4-.9-1.1-1.7-1.9-2.2-.8-.5-1.8-.8-3-.8ZM294.3,149.2l-1.3,2.9c0,0,0,.2-.1.3,0,.1-.1.2-.2.4h1.5c0-.1,0-.2,0-.3,0-.1,0-.2.1-.3l5.9-14.3c0-.1,0-.2.1-.3,0-.1.1-.2.2-.3h-1.4c0,.1,0,.2,0,.3,0,0,0,.2-.1.3l-3.3,8.1-2.8-8.1c0,0,0-.2,0-.3,0-.1,0-.2,0-.4h-2.8c0,.2.1.3.2.4,0,.1,0,.2.1.3l4.1,11.4ZM285.2,138.3v8.8c0,.8.2,1.4.6,1.8.4.4,1,.6,1.8.6.4,0,.7,0,1-.1.3,0,.7-.2,1-.4v-1.2c-.2.1-.4.2-.5.2-.1,0-.2,0-.3.1,0,0-.2,0-.3,0-.3,0-.5,0-.7-.3-.2-.2-.2-.4-.2-.8v-8.7h1.9v-1.1h-1.9v-1.9c0,0,0-.1,0-.2,0-.1,0-.3,0-.5l-2.4.3v2.3h-1.8v1.1h1.8ZM279.1,137.1c0,.1,0,.3,0,.4,0,.1,0,.2,0,.4v10.6c0,.1,0,.3,0,.4,0,.1,0,.2,0,.4h2.5c0-.1,0-.3,0-.4,0-.1,0-.2,0-.4v-10.6c0-.1,0-.3,0-.4,0-.1,0-.2,0-.4h-2.5ZM280.5,133.9c-.3,0-.6,0-.8.1-.2,0-.4.2-.5.4-.1.2-.2.4-.2.6,0,.4.1.6.4.8.3.2.6.3,1.1.3.5,0,.8-.1,1.1-.3.3-.2.4-.5.4-.8,0-.3-.1-.6-.4-.8-.3-.2-.6-.3-1.1-.3ZM268.6,148.4c.5.2.9.4,1.3.6.4.2.8.3,1.2.3.4,0,.9,0,1.3,0,.9,0,1.8-.2,2.4-.5.7-.3,1.2-.8,1.6-1.3.4-.6.6-1.3.6-2,0-.6,0-1.1-.3-1.5-.2-.4-.6-.8-1.1-1.1-.5-.3-1.2-.7-2-1-.5-.2-1-.4-1.3-.5-.3-.2-.6-.3-.8-.5-.2-.2-.3-.3-.4-.5,0-.2-.1-.4-.1-.6,0-.4.1-.7.3-1,.2-.3.5-.5.8-.6.3-.2.7-.2,1.2-.2.3,0,.6,0,.9.1.3,0,.6.2,1,.4s.7.4,1.1.7l.4-1.5c-.6-.3-1.3-.5-1.8-.6-.6-.1-1.2-.2-1.8-.2-.8,0-1.6.2-2.2.5-.6.3-1.1.7-1.5,1.2-.4.5-.5,1.2-.5,1.9,0,.5,0,1,.3,1.4.2.4.5.8,1,1.1.4.3,1,.6,1.7.9.6.2,1.1.5,1.5.6.4.2.7.4.9.5.2.2.4.4.4.5,0,.2.1.4.1.7,0,.4-.1.7-.3,1-.2.3-.5.5-.8.7-.4.2-.8.3-1.2.3-.4,0-.8,0-1.1-.1-.4,0-.7-.3-1.1-.5-.4-.2-.8-.5-1.2-.9l-.4,1.6ZM262.1,137.1c0,.1,0,.3,0,.4,0,.1,0,.2,0,.4v10.6c0,.1,0,.3,0,.4,0,.1,0,.2,0,.4h2.5c0-.1,0-.3,0-.4,0-.1,0-.2,0-.4v-6.9c0-.3,0-.6,0-.9,0-.3.1-.5.2-.7,0-.2.2-.4.4-.5.2-.3.5-.4.8-.6.3-.1.7-.2,1.1-.2h.4s0-1.8,0-1.8c-.6,0-1.1,0-1.5.2-.4.1-.7.3-1,.6-.3.3-.4.6-.6,1v-1.5h-2.4ZM251.6,141.7c0-.8.3-1.4.5-2,.3-.6.6-1,1-1.3.4-.3.9-.4,1.4-.4s.7,0,1.1.2c.3.2.6.4.9.7.2.3.4.7.6,1.1,0,.2,0,.3.1.5,0,.2,0,.3,0,.5,0,.2,0,.4,0,.7h-5.8ZM258.9,146.9c-.4.3-.8.6-1.1.8-.4.2-.7.4-1.1.5-.4,0-.8.1-1.2.1-.9,0-1.6-.2-2.2-.6-.6-.4-1-1-1.3-1.8,0-.2-.1-.5-.2-.7,0-.2,0-.4-.1-.7,0-.2,0-.5,0-.8,0-.3,0-.6,0-1h8.3c0-1.3-.3-2.3-.7-3.2-.4-.9-1-1.5-1.8-2-.8-.5-1.7-.7-2.7-.7-1.2,0-2.2.3-3,.8-.8.5-1.5,1.2-1.9,2.2-.5.9-.7,2.1-.7,3.4,0,1.3.2,2.4.7,3.4.5.9,1.2,1.6,2.1,2.1.9.5,2,.7,3.3.7.4,0,.8,0,1.1,0,.3,0,.7,0,1-.2.3,0,.6-.2,1-.3.3-.1.7-.3,1.1-.5l-.4-1.5ZM243.9,146.5l-3.1-8.7c0-.1,0-.3,0-.4,0-.1,0-.2,0-.3h-2.8c0,.2.1.3.2.4,0,.1,0,.2.1.3l3.9,10.7c0,.1,0,.3.1.4,0,0,0,.2,0,.3h1.9c0-.1,0-.2,0-.3,0-.1,0-.2.1-.4l4-10.7c0-.1,0-.3.1-.4,0-.1.1-.2.2-.3h-1.4c0,0,0,.2,0,.3,0,.1,0,.2-.1.4l-3.3,8.7ZM234,137.1c0,.1,0,.3,0,.4,0,.1,0,.2,0,.4v10.6c0,.1,0,.3,0,.4,0,.1,0,.2,0,.4h2.5c0-.1,0-.3,0-.4,0-.1,0-.2,0-.4v-10.6c0-.1,0-.3,0-.4,0-.1,0-.2,0-.4h-2.5ZM235.3,133.9c-.3,0-.6,0-.8.1-.2,0-.4.2-.5.4-.1.2-.2.4-.2.6,0,.4.1.6.4.8.3.2.6.3,1.1.3.5,0,.8-.1,1.1-.3.3-.2.4-.5.4-.8,0-.3-.1-.6-.4-.8-.3-.2-.6-.3-1.1-.3ZM221.1,137.1c0,.1,0,.3,0,.4,0,.1,0,.2,0,.4v10.6c0,.1,0,.2,0,.3,0,0,0,.2,0,.2,0,0,0,.2,0,.2h2.5c0-.1,0-.3,0-.4,0-.1,0-.2,0-.4v-7c0-.6.1-1.1.3-1.5s.5-.7,1-1c.4-.2.9-.3,1.5-.3.7,0,1.3.2,1.7.6.4.4.6.9.6,1.6v7.7c0,.1,0,.2,0,.3,0,0,0,.2,0,.2,0,0,0,.1,0,.2h2.5c0-.1,0-.3,0-.4,0-.1,0-.2,0-.4v-8.1c0-.5,0-.9-.2-1.3-.1-.4-.3-.7-.5-1-.4-.4-.8-.7-1.3-.9-.5-.2-1.1-.3-1.8-.3s-1.1,0-1.5.2c-.4.1-.8.4-1.2.6-.4.3-.7.7-1,1.1v-1.7h-2.4ZM216.8,133.8c0,.1,0,.2,0,.3,0,.1,0,.2,0,.4v9.4c0,.9-.2,1.7-.5,2.3-.3.6-.8,1.1-1.5,1.4-.6.3-1.4.5-2.4.5-.9,0-1.6-.2-2.2-.5-.6-.3-1.1-.8-1.4-1.3-.3-.6-.5-1.3-.5-2.1v-9.7c0-.1,0-.3,0-.4,0-.1,0-.2,0-.4h-2.8c0,.1,0,.3,0,.4,0,.1,0,.2,0,.4v9.7c0,.6,0,1.2.3,1.8.2.6.5,1.1.8,1.5.5.7,1.2,1.2,2,1.5.8.3,1.8.5,2.9.5,1.3,0,2.5-.2,3.4-.6.9-.4,1.6-1,2.1-1.8.5-.8.7-1.8.7-2.9v-9.6c0-.1,0-.2,0-.3,0,0,0-.2,0-.2,0,0,0-.2,0-.2h-1.3ZM187.5,149.2h10v-1.3c-.1,0-.2,0-.3,0,0,0-.2,0-.3,0,0,0-.2,0-.3,0h-6.3l7.2-9.6v-1.2h-9.9v1.3c.1,0,.2,0,.3,0,0,0,.2,0,.3,0,0,0,.2,0,.3,0h6.2l-7.2,9.6v1.2ZM180.7,138.1c.9,0,1.5.4,2,1.2.5.8.7,2,.7,3.6,0,.6,0,1.1,0,1.5,0,.4-.1.8-.2,1.2-.1.4-.2.7-.4,1-.2.4-.5.7-.9.9-.4.2-.8.3-1.2.3-.9,0-1.6-.4-2-1.2-.5-.8-.7-2-.7-3.6s.1-2,.3-2.7c.2-.7.5-1.3,1-1.7.4-.4.9-.6,1.5-.6ZM183.2,149.2h2.4c0-.1,0-.3,0-.4,0-.1,0-.2,0-.4v-15.1c0-.1,0-.3,0-.4,0-.1,0-.2,0-.4h-2.5c0,.1,0,.3,0,.4,0,.1,0,.2,0,.4v5.1c-.3-.4-.6-.7-.9-.9-.3-.2-.6-.4-1-.5-.4-.1-.8-.2-1.3-.2-1,0-1.8.3-2.5.8-.7.5-1.2,1.2-1.6,2.2-.4.9-.6,2.1-.6,3.4,0,1.3.2,2.4.5,3.3.4.9.9,1.6,1.5,2.1.7.5,1.4.8,2.3.8.5,0,1,0,1.4-.2.4-.1.8-.3,1.1-.6.3-.3.7-.7,1-1.2v1.8ZM168,137.9c.6,0,1.2.2,1.6.6.5.4.8,1,1.1,1.8.2.8.4,1.7.4,2.8,0,1.1-.1,2-.4,2.8-.3.8-.6,1.4-1.1,1.8-.5.4-1,.6-1.6.6-.6,0-1.2-.2-1.6-.6-.5-.4-.8-1-1.1-1.8-.3-.8-.4-1.7-.4-2.8,0-1.1.1-2,.4-2.8.3-.8.6-1.4,1.1-1.8.5-.4,1-.6,1.6-.6ZM168,136.9c-.8,0-1.6.1-2.3.4-.7.3-1.3.7-1.7,1.2-.5.5-.9,1.2-1.1,1.9-.3.7-.4,1.6-.4,2.5,0,1.3.2,2.5.7,3.4.4,1,1.1,1.7,1.9,2.2.8.5,1.8.8,3,.8,1.1,0,2.1-.3,2.9-.8.8-.5,1.5-1.2,1.9-2.2.5-.9.7-2,.7-3.3,0-1.3-.2-2.4-.7-3.4-.4-.9-1.1-1.7-1.9-2.2-.8-.5-1.8-.8-3-.8ZM161.3,149.2v-1.4c0,0-.2,0-.2,0,0,0-.1,0-.2,0,0,0-.2,0-.3,0h-4.4v-13.4c0-.1,0-.3,0-.4,0-.1,0-.2,0-.4h-2.8c0,.2,0,.3,0,.4,0,.1,0,.2,0,.3v14c0,.1,0,.2,0,.3,0,.1,0,.2,0,.4h7.8Z">
  </path>
  <path class="cls-2"
    d="M438.5,149.2l-1.3,2.9c0,0,0,.2-.1.3,0,.1-.1.2-.2.4h1.5c0-.1,0-.2,0-.3,0-.1,0-.2.1-.3l5.9-14.3c0-.1,0-.2.1-.3,0-.1.1-.2.2-.3h-1.4c0,.1,0,.2,0,.3,0,0,0,.2-.1.3l-3.3,8.1-2.8-8.1c0,0,0-.2,0-.3,0-.1,0-.2,0-.4h-2.8c0,.2.1.3.2.4,0,.1,0,.2.1.3l4.1,11.4ZM428.1,138.1c.6,0,1.1.2,1.5.5.4.3.8.8,1,1.3.2.6.3,1.3.3,2.1s-.1,1.6-.3,2.2c-.2.6-.6,1.1-1,1.4-.4.3-.9.5-1.6.5-.6,0-1.1-.2-1.6-.5-.4-.3-.8-.8-1-1.4-.2-.6-.3-1.3-.3-2.2s.1-1.5.3-2.1c.2-.6.6-1,1-1.3.4-.3,1-.5,1.6-.5ZM423.3,150.3c.8-.2,1.5-.4,2.2-.5.7-.1,1.4-.2,2-.2s1.3,0,1.8.2c.5.1.9.3,1.2.5.3.2.4.5.4.7,0,.3-.1.6-.4.8-.3.2-.6.4-1.1.5-.5.1-1,.2-1.7.2s-.7,0-1.1,0c-.3,0-.7,0-1.1-.1-.4,0-.7-.1-1.2-.2-.4,0-.9-.2-1.4-.3v.4c.6.2,1.2.4,1.7.5.5.1,1,.2,1.5.3.5,0,.9.1,1.3.2.4,0,.9,0,1.3,0,1,0,1.9-.1,2.7-.3.7-.2,1.3-.5,1.7-.9.4-.4.6-.8.6-1.3,0-.5-.2-1-.6-1.3-.4-.4-.9-.7-1.6-.9-.7-.2-1.5-.3-2.5-.3-.3,0-.6,0-.9,0-.3,0-.7,0-1,.1-.4,0-.8.1-1.2.2-.5,0-1,.2-1.6.4l2.2-1.4c.1,0,.3-.2.4-.2.1,0,.2,0,.4-.1.1,0,.3,0,.5,0,.4,0,.8,0,1.1-.1.3,0,.5,0,.7-.1.2,0,.4,0,.6-.2.2,0,.4-.1.5-.2.6-.3,1-.6,1.4-1,.4-.4.7-1,.9-1.6.2-.6.3-1.3.3-2,0-1.1-.2-2.1-.7-2.9-.5-.8-1.2-1.4-2.1-1.9.4-.3.8-.5,1-.7.3-.2.4-.5.6-.7.1-.3.2-.6.2-.9h-2.2c0,.3,0,.6-.2.9-.1.3-.2.5-.4.7-.2.2-.4.3-.6.4-.2,0-.4,0-.6,0-.1,0-.3,0-.4,0h-.3c-1.1,0-2,.2-2.8.6-.8.4-1.4,1-1.8,1.8-.4.8-.6,1.8-.6,2.9,0,.7,0,1.4.3,1.9.2.5.4,1,.8,1.4.4.4.9.8,1.5,1.1l-2.6,1.9.6,1.7Z">
  </path>
  <path class="cls-2"
    d="M109.8,129.7c-2-2-4.4-3.6-7-4.7-1.6-.7-3.3-1.1-5-1.4h0c0-.1-.9-.1-.9-.1-.8,0-1.6-.1-2.4-.1s-1.6,0-2.4.1h-.4,0c-1.9.3-3.8.8-5.5,1.5-2.7,1.1-5,2.7-7,4.7s-3.6,4.4-4.7,7c-1.1,2.6-1.6,5.3-1.6,8.3s.6,5.7,1.6,8.3c1.1,2.7,2.7,5,4.7,7s4.4,3.6,7,4.7c2.1.9,4.4,1.4,6.8,1.6v.5c-2.4-.2-4.8-.7-6.9-1.6-2.7-1.1-5.1-2.8-7.2-4.8-2-2-3.7-4.5-4.8-7.2-1.1-2.6-1.7-5.5-1.7-8.4s.6-5.8,1.7-8.4c1.1-2.7,2.8-5.1,4.8-7.2,2-2,4.5-3.7,7.2-4.8,2.6-1.1,5.5-1.7,8.4-1.7s5.8.6,8.4,1.7c2.7,1.1,5.1,2.8,7.2,4.8,2,2,3.7,4.5,4.8,7.2,1.1,2.6,1.7,5.5,1.7,8.4s-.6,5.8-1.7,8.4c-1.1,2.7-2.8,5.1-4.8,7.2-2,2-4.5,3.7-7.2,4.8-2,.8-4.1,1.4-6.3,1.6v-.5c2.1-.2,4.2-.7,6.1-1.5,2.7-1.1,5-2.7,7-4.7,2-2,3.6-4.4,4.7-7,1.1-2.6,1.6-5.3,1.6-8.3s-.6-5.7-1.6-8.3c-1.1-2.7-2.7-5-4.7-7M86.8,118.7l-3.6,1.1.8,2.6v.2c0,0-.1,0-.1,0-.6.3-1.1.6-1.7.9-.5.3-1.1.6-1.6,1h-.2c0,.1-.1,0-.1,0l-1.5-2-3.5,2.7,1.7,2.2v.2c.1,0,0,.1,0,.1-.4.4-.8.9-1.2,1.3s-.8.9-1.1,1.4v.2c-.1,0-.3,0-.3,0l-2.6-1.4-2.1,3.9,2.3,1.2h.2c0,.1,0,.3,0,.3-.3.6-.6,1.3-.8,1.9-.2.6-.5,1.3-.6,2v.2c0,0-.2,0-.2,0l-2.5-.3-.6,4.4,2.3.3h.2s0,.2,0,.2c0,.3,0,.6,0,.9,0,.3,0,.6,0,.9s0,.7,0,1c0,.3,0,.7,0,1v.2s-.2,0-.2,0h-2.6c0,.1.2,4.5.2,4.5l3.2-.2h.2s0,.2,0,.2c.2.6.4,1.2.6,1.8.2.6.5,1.2.7,1.7v.2c0,0,0,.1,0,.1l-2.2,1.2,2.1,3.9,2.3-1.3h.2c0,0,.1,0,.1,0,.4.5.8,1,1.2,1.5.4.5.9,1,1.3,1.4l.2.2-.2.2-1.9,1.9,3.1,3.1,2.3-2.3h.1c0-.1.2,0,.2,0,.5.3,1,.7,1.6,1,.5.3,1.1.6,1.6.9h.2c0,0,0,.3,0,.3l-.9,2.7,4.2,1.5.9-2.7v-.2c0,0,.3,0,.3,0,1,.2,2,.4,3,.6.5,0,1.1.1,1.6.1v.5c-.5,0-1.1,0-1.7-.1-1-.1-1.9-.3-2.8-.5l-.9,2.7v.2c0,0-.3,0-.3,0l-4.6-1.6h-.2c0,0,0-.3,0-.3l1-2.7c-.5-.2-1-.5-1.5-.8-.5-.3-1-.6-1.4-.9l-2.3,2.3-.2.2-.2-.2-3.4-3.4-.2-.2.2-.2,2-1.9c-.4-.4-.8-.8-1.2-1.3-.4-.4-.7-.9-1.1-1.4l-2.4,1.3h-.2c0,.1-.1,0-.1,0l-2.3-4.3v-.2c-.1,0,0-.1,0-.1l2.2-1.2c-.2-.5-.4-1-.6-1.6-.2-.5-.4-1.1-.5-1.6l-3.2.2h-.2s0-.2,0-.2l-.3-4.9v-.2s.2,0,.2,0h2.6c0-.4,0-.7,0-.9,0-.3,0-.7,0-1s0-.6,0-.9c0-.3,0-.5,0-.8l-2.3-.3h-.2s0-.3,0-.3l.6-4.8v-.2s.3,0,.3,0l2.6.3c.2-.6.4-1.2.6-1.8.2-.6.5-1.2.7-1.8l-2.3-1.2h-.2c0-.1.1-.3.1-.3l2.3-4.3v-.2c.1,0,.3.1.3.1l2.6,1.4c.3-.4.7-.9,1-1.3.4-.4.7-.8,1.1-1.2l-1.7-2.2v-.2c-.1,0,0-.1,0-.1l3.9-2.9h.2c0-.1.1,0,.1,0l1.5,2c.5-.3.9-.6,1.4-.9.5-.3,1-.5,1.5-.8l-.8-2.7v-.2c0,0,.2,0,.2,0l3.9-1.2v.5ZM102.5,117.4l4.3,2.2h.2c0,.1-.1.3-.1.3l-1.3,2.6c.6.3,1.1.6,1.6.9.6.3,1.1.7,1.6,1l2.1-2.3.2-.2.2.2,3.6,3.3.2.2-.2.2-2,2.2c.4.4.7.8,1.1,1.2.4.4.7.9,1,1.3l2.9-1.4h.2c0-.1.1.1.1.1l2.2,4.4v.2c.1,0-.1.1-.1.1l-2.6,1.3c.2.5.4,1,.6,1.5.2.5.4,1,.5,1.6l3.7-.4h.2s0,.2,0,.2l.5,4.8v.2s-.2,0-.2,0l-3.3.3c0,.2,0,.5,0,.7,0,.3,0,.6,0,.9s0,.6,0,.9c0,.2,0,.5,0,.7l3.5.9h.2c0,0,0,.3,0,.3l-1.3,4.7v.2c0,0-.3,0-.3,0l-3-.8c-.2.6-.4,1.2-.6,1.8-.2.6-.4,1.2-.7,1.7l2.7,1.4h.2c0,.1-.1.3-.1.3l-2.2,4.3v.2c-.1,0-.3-.1-.3-.1l-3-1.5c-.3.4-.6.8-1,1.2-.3.4-.7.8-1,1.2l2,2.5v.2c.1,0,0,.1,0,.1l-3.8,3.1h-.2c0,.1-.1,0-.1,0l-1.9-2.4c-.5.3-.9.6-1.4.9-.5.3-1,.5-1.5.8l.9,3v.2c0,0-.2,0-.2,0l-4.7,1.4h-.2c0,0,0-.2,0-.2l-.8-2.6c-1,.3-2,.5-3,.6-.4,0-.8,0-1.2.1v-.5c.4,0,.8,0,1.1-.1,1.1-.1,2.1-.4,3.2-.6h.2c0,0,0,.2,0,.2l.8,2.6,4.2-1.2-.9-3v-.2c0,0,.1,0,.1,0,.5-.3,1.1-.6,1.6-.9.5-.3,1-.6,1.5-1h.2c0-.1.1,0,.1,0l1.9,2.4,3.4-2.8-2-2.4v-.2c-.1,0,0-.1,0-.1.4-.4.8-.8,1.2-1.3.4-.4.7-.9,1.1-1.4v-.2c.1,0,.3,0,.3,0l3,1.5,2-3.9-2.7-1.4h-.2c0,0,0-.3,0-.3.3-.6.5-1.2.8-1.9.2-.6.4-1.3.6-1.9v-.2c0,0,.3,0,.3,0l3,.8,1.2-4.3-3.4-.9h-.2s0-.2,0-.2c0-.3,0-.6,0-.9,0-.3,0-.6,0-.9s0-.6,0-.9c0-.3,0-.6,0-.9v-.2s.2,0,.2,0l3.3-.3-.5-4.4-3.6.4h-.2s0-.2,0-.2c-.2-.6-.3-1.1-.5-1.7-.2-.6-.4-1.1-.7-1.7v-.2c0,0,.1,0,.1,0l2.6-1.3-2-4-2.9,1.4h-.2c0,0-.1,0-.1,0-.4-.5-.7-1-1.1-1.4-.4-.5-.8-.9-1.2-1.4v-.2c-.1,0,0-.2,0-.2l2-2.2-3.3-3-2.1,2.3h-.1c0,.1-.2,0-.2,0-.6-.4-1.1-.8-1.7-1.1-.6-.4-1.2-.7-1.8-1h-.2c0-.1.1-.3.1-.3l1.3-2.6-3.9-2v-.5Z">
  </path>
  <path class="cls-2"
    d="M96.9,158.9c0,0,.2,0,.3,0,0,0-.2,0-.3,0M92.2,158.8c0,0,.1,0,.2,0,0,0-.1,0-.2,0ZM91.9,158.8c0,0,.1,0,.2,0,0,0-.1,0-.2,0ZM98.1,160l-.5,18.3h0c0,.1,0,.3,0,.3-.3.5-.5,1-.7,1.4-.8,1.6-1.3,2.5-2,2.5-.9,0-1.4-1.2-2.5-3.7,0,0,0-.2-.1-.3h0c0-.1,0-.2,0-.2l-.5-18.4h0s0,0,0,0c.2,0,.7,0,1.1.1l.5,18.1c0,0,0,.1,0,.2.9,2,1.3,2.9,1.4,2.9,0,0,.4-.7,1-1.9.2-.4.4-.8.7-1.3l.4-18c.4-.1.7-.1,1-.1,0,0,0,0,.1,0h.1ZM91.1,122.3h7.8v.6s-.2,7.8-.2,7.8h-1.2l.2-7.2h-6l.2,7.2h-1.2l-.2-7.8v-.6s.6,0,.6,0Z">
  </path>
  <path class="cls-2"
    d="M107.6,131.8h-25.4v24.1c0,.8.3,1.5.8,2,.5.5,1.2.8,2,.8h6.7c.6,0,2.2,0,3.1,1.5,1-1.5,2.3-1.5,3-1.5,0,0,0,0,.1,0h6.9c.8,0,1.4-.3,1.9-.8.5-.5.8-1.2.8-1.9v-24.2ZM81.5,130.7h27.1v25.4c0,1.1-.4,2-1.1,2.7-.7.7-1.7,1.1-2.7,1.1h-6.9s0,0-.1,0c-.6,0-1.8,0-2.6,1.9l-.7,1.5-.4-1.6c-.5-1.8-1.9-1.8-2.5-1.8,0,0,0,0,0,0h-6.6c-1.1,0-2.1-.4-2.8-1.2-.7-.7-1.2-1.7-1.2-2.8v-25.3h.6Z">
  </path>
  <path class="cls-2" d="M86.8,122.3h15.7v-5h-15.7v5ZM103.1,123.5h-17.5v-7.5h18.1v7.5h-.6Z"></path>
  <path class="cls-1"
    d="M69.2,133.5h-7.5v.8c1.7.1,2.2.8,2.2,2.8v13.9c0,2.1-.5,2.9-2.3,2.9v.8h8.6v-.8c-1.9,0-2.3-.8-2.3-2.9v-5.8h2.3c4.2,0,6.4-2.4,6.4-5.9s-1-4.1-2.7-5c-1.3-.7-2.9-.8-4.7-.8M68,144v-7.9c0-1.1.3-1.5,1.3-1.5,2.1,0,2.9,1.5,2.9,4.8s-1,4.6-3.5,4.6h-.7Z">
  </path>
  <path class="cls-1"
    d="M114,154.7h14.1l.9-7.2h-.7c-1.3,4.6-3,5.9-6.4,5.9s-1.9-.5-1.9-2.6v-7.5l4.1-3.6v-1.7l-4.1,3.6v-4.6c0-2.2.4-2.7,2.5-2.8v-.8h-8.5v.8c1.6,0,2.1.8,2.1,2.8v7.2l-2.7,2.4v1.7l2.7-2.4v5c0,2.1-.4,2.9-2.2,2.9v.8Z">
  </path>
  <path class="cls-1"
    d="M115.3,103.3l1.3-2.9c-4.2,2.4-11.3,1-18.8,0-8.8-1-17.3,2.5-9.2,14.5h4.2c-3.2-5.9-2.7-8.9-.1-10.4,2.6-1.5,7.4-1.4,12.4-1.2,3.5.1,7.1.2,10.1-.2M114.3,105.5l.6-1.4c-3,.4-6.5.3-9.8.1-4.9-.2-9.6-.3-12,1.1-2.2,1.3-2.5,4.1.6,9.7h2.7c-1.5-5.2.1-7.6,3.1-8.6,2.4-.8,5.5-.8,8.6-.7,2.3,0,4.5,0,6.2-.2ZM113.3,107.5l.6-1.2c-1.7.2-3.7.2-5.8.2-3,0-6.1-.1-8.3.7-2.6.9-4,3-2.5,7.9h1.5c-.3-5.3,2.5-6.8,6-7.1,1.3-.1,2.6-.1,4-.1,1.7,0,3.3,0,4.6-.2ZM101,115c2.3-6.7,7.5-3.1,11.3-5.1l.7-1.5c-1.3.2-2.7.2-4.2.2-1.3,0-2.7,0-3.9.1-3.1.3-5.6,1.6-5.4,6.4h1.5Z">
  </path>
  <path class="cls-1"
    d="M84.3,141.8h1.6l.7,1h1.7l1.8,2.8h9.2l1.7-2.8h1.9l.8-1.9h1.2c-.8,4.9-2.1,7.9-4.2,9.3h-10.9c-2.6-1.2-4.2-4.2-5.5-8.4">
  </path>
  <path class="cls-1"
    d="M90.2,151.1l.3-.6,2.1-4.3,4.2-8.7-.4-.2.3-.6,1.4.7-.3.6h-.3c0-.1-4.1,8.2-4.1,8.2l-2.1,4.3-.4.9c.3.4.4.8.2,1.2l-1.8,3.8-2.1-1,1.7-3.7c.2-.4.8-.5,1.2-.6">
  </path>
  <path class="cls-1" d="M54.9,59.1h80.8v129.2H54.9V59.1ZM52.6,56.5h85.6v134.5H52.6V56.5Z"></path>
</svg>